<svg xmlns="http://www.w3.org/2000/svg" width="19" height="19" viewBox="0 0 19 19">
  <g id="Group_72" data-name="Group 72" transform="translate(-7149 -2597)">
    <rect id="Rectangle_40" data-name="Rectangle 40" width="19" height="19" rx="5" transform="translate(7149 2597)" fill="#fff"/>
    <g id="supermarket" transform="translate(7154 2602.5)">
      <path id="Path_35" data-name="Path 35" d="M150.753,362.014a.73.73,0,1,1,.73-.73A.73.73,0,0,1,150.753,362.014Zm0,0" transform="translate(-147.591 -354.434)" fill="#697c86"/>
      <path id="Path_36" data-name="Path 36" d="M180.27,391.045a.243.243,0,1,1,.243-.243A.243.243,0,0,1,180.27,391.045Zm0,0" transform="translate(-177.109 -383.953)" fill="#bebebe"/>
      <path id="Path_37" data-name="Path 37" d="M362.785,362.014a.73.73,0,1,1,.73-.73A.73.73,0,0,1,362.785,362.014Zm0,0" transform="translate(-356.186 -354.434)" fill="#596c76"/>
      <path id="Path_38" data-name="Path 38" d="M392.3,391.045a.243.243,0,1,1,.243-.243A.243.243,0,0,1,392.3,391.045Zm0,0" transform="translate(-385.703 -383.953)" fill="#bebebe"/>
      <path id="Path_39" data-name="Path 39" d="M113.044,271.755a.241.241,0,0,1-.243.243h-4.653a.729.729,0,0,1-.73-.73.721.721,0,0,1,.632-.72.315.315,0,0,1,.1-.01.225.225,0,0,1,.156.063l-.146.423h-.01a.243.243,0,1,0,0,.486H112.8A.241.241,0,0,1,113.044,271.755Zm0,0" transform="translate(-105.677 -265.824)" fill="#465a61"/>
      <path id="Path_40" data-name="Path 40" d="M1.614,1.473a5.86,5.86,0,0,0,.541.254.235.235,0,0,0,0-.063L1.94.691A.243.243,0,0,0,1.7.5H.243a.243.243,0,1,0,0,.486H1.507Zm0,0" transform="translate(0 0)" fill="#465a61"/>
      <path id="Path_41" data-name="Path 41" d="M300.875,330.794a.241.241,0,0,1-.243.243h-2.288v-.486h2.288A.241.241,0,0,1,300.875,330.794Zm0,0" transform="translate(-293.507 -324.871)" fill="#3b4a51"/>
      <path id="Path_42" data-name="Path 42" d="M106.251,60.605a.24.24,0,0,0-.195-.1H99.613l.759,3.415.107.477h4.6a.245.245,0,0,0,.233-.175l.973-3.4a.255.255,0,0,0-.039-.214Zm0,0" transform="translate(-97.998 -59.035)" fill="#bebebe"/>
      <path id="Path_43" data-name="Path 43" d="M301.8,60.819l-.973,3.4a.245.245,0,0,1-.233.175h-2.249V60.508h3.222a.24.24,0,0,1,.195.1.255.255,0,0,1,.039.214Zm0,0" transform="translate(-293.507 -59.035)" fill="#afafaf"/>
    </g>
  </g>
</svg>
