<svg xmlns="http://www.w3.org/2000/svg" width="40" height="40" viewBox="0 0 40 40">
  <g id="Group_271" data-name="Group 271" transform="translate(-208 -343)">
    <circle id="Ellipse_26" data-name="Ellipse 26" cx="20" cy="20" r="20" transform="translate(208 343)" fill="#2e3339"/>
    <g id="art" transform="translate(211.064 353)">
      <path id="Path_115" data-name="Path 115" d="M24.25,3.729A10.183,10.183,0,0,0,16.518,0,9.318,9.318,0,0,0,9.983,2.655c-2.805,2.731-3.73,5.98-2.537,8.915a6.224,6.224,0,0,0,5.409,4.059c.059,0,.117,0,.176,0,.33-.014.648-.041.956-.068.372-.032.723-.063,1.035-.063.738,0,1.376,0,1.376,1.88,0,2.018,1.228,3.427,2.987,3.428h0a6.015,6.015,0,0,0,4.007-2.094A11.861,11.861,0,0,0,26.7,11.729,10.363,10.363,0,0,0,24.25,3.729ZM22.372,17.688a4.759,4.759,0,0,1-2.988,1.672c-1.141,0-1.545-1.07-1.545-1.986,0-2.266-.9-3.322-2.818-3.322-.374,0-.755.033-1.159.068-.292.025-.594.051-.891.064l-.116,0a4.829,4.829,0,0,1-4.073-3.16c-.961-2.363-.156-5.038,2.208-7.339a7.884,7.884,0,0,1,5.529-2.246,8.763,8.763,0,0,1,6.641,3.229C26.705,8.78,25.543,14.516,22.372,17.688Z" transform="translate(0 0)" fill="#42e1ff"/>
      <path id="Path_116" data-name="Path 116" d="M192.654,136.845a2.173,2.173,0,1,0,2.173-2.187A2.182,2.182,0,0,0,192.654,136.845Zm2.9,0a.731.731,0,1,1-.731-.745A.739.739,0,0,1,195.558,136.845Z" transform="translate(-172.71 -125.226)" fill="#42e1ff"/>
      <path id="Path_117" data-name="Path 117" d="M169.21,64.457a2.173,2.173,0,1,0-2.173,2.187A2.182,2.182,0,0,0,169.21,64.457Zm-2.9,0a.731.731,0,1,1,.731.745A.739.739,0,0,1,166.306,64.457Z" transform="translate(-146.867 -57.909)" fill="#42e1ff"/>
      <path id="Path_118" data-name="Path 118" d="M96.011,39.627a2.187,2.187,0,1,0,2.173,2.186A2.182,2.182,0,0,0,96.011,39.627Zm0,2.931a.745.745,0,1,1,.731-.745A.739.739,0,0,1,96.011,42.558Z" transform="translate(-80.815 -36.851)" fill="#42e1ff"/>
      <path id="Path_119" data-name="Path 119" d="M41.968,92.809A2.187,2.187,0,1,0,44.141,95,2.182,2.182,0,0,0,41.968,92.809Zm0,2.931A.745.745,0,1,1,42.7,95,.739.739,0,0,1,41.968,95.74Z" transform="translate(-30.558 -86.309)" fill="#42e1ff"/>
    </g>
  </g>
</svg>
