<svg xmlns="http://www.w3.org/2000/svg" width="27.496" height="23.362" viewBox="0 0 27.496 23.362">
  <g id="Group_306" data-name="Group 306" transform="translate(-306 -487)">
    <g id="free" transform="translate(306 487)">
      <g id="Group_111" data-name="Group 111" transform="translate(0 0)">
        <g id="Group_110" data-name="Group 110">
          <path id="Path_85" data-name="Path 85" d="M25.571,51.829l-.712-2.848a.431.431,0,0,0,.341-.421V48.1a1.81,1.81,0,0,0-1.808-1.808H20.148v-.947a.891.891,0,0,0-.89-.89H13.228l3.665-1.466a.431.431,0,1,0-.32-.8l-3,1.2a10.119,10.119,0,0,0,2.163-1.684,2.005,2.005,0,0,0-3.189-2.432,17.416,17.416,0,0,0-1.555,3.719,17.418,17.418,0,0,0-1.555-3.719A2.005,2.005,0,0,0,6.25,41.707,10.116,10.116,0,0,0,8.413,43.39l-3-1.2a.431.431,0,1,0-.32.8l3.665,1.466H2.727a.891.891,0,0,0-.89.89v7.807a.431.431,0,0,0,.861,0V45.345a.029.029,0,0,1,.029-.029H19.259a.029.029,0,0,1,.029.029v7.807a.431.431,0,0,0,.861,0v-.488H25.23a1.409,1.409,0,0,1,1.338.976H25.229a.431.431,0,0,0-.431.431v.918a1.35,1.35,0,0,0,1.349,1.349h.488v1.894H25.509a2.726,2.726,0,0,0-5.154,0h-.207V54.989a.431.431,0,0,0-.861,0v3.243H10.355a2.726,2.726,0,0,0-5.154,0H2.727A.029.029,0,0,1,2.7,58.2v-.947H4.564a.431.431,0,0,0,0-.861H.431a.431.431,0,0,0,0,.861H1.837V58.2a.891.891,0,0,0,.89.89H5.052c0,.01,0,.019,0,.029a2.727,2.727,0,0,0,5.453,0c0-.01,0-.019,0-.029h9.7c0,.01,0,.019,0,.029a2.727,2.727,0,0,0,5.453,0c0-.01,0-.019,0-.029h1.407a.431.431,0,0,0,.431-.431V54.071A2.271,2.271,0,0,0,25.571,51.829ZM9.285,42.921a9.983,9.983,0,0,1-2.351-1.736A1.144,1.144,0,0,1,8.753,39.8a18.838,18.838,0,0,1,1.5,3.708C9.962,43.334,9.628,43.134,9.285,42.921Zm2.447.584a18.846,18.846,0,0,1,1.5-3.708,1.144,1.144,0,0,1,1.819,1.387A9.985,9.985,0,0,1,12.7,42.921C12.357,43.134,12.023,43.334,11.733,43.505Zm8.416,3.648h3.243a.948.948,0,0,1,.947.947v.029h-4.19Zm0,4.65V48.99h3.826l.7,2.813ZM7.778,60.988a1.866,1.866,0,1,1,1.866-1.866A1.868,1.868,0,0,1,7.778,60.988Zm15.154,0A1.866,1.866,0,1,1,24.8,59.122,1.868,1.868,0,0,1,22.933,60.988Zm3.7-5.511h-.488a.488.488,0,0,1-.488-.488V54.5h.976v.976Z" transform="translate(0 -38.486)" fill="#42e1ff"/>
        </g>
      </g>
      <g id="Group_113" data-name="Group 113" transform="translate(6.888 19.746)">
        <g id="Group_112" data-name="Group 112" transform="translate(0 0)">
          <path id="Path_86" data-name="Path 86" d="M129.157,406.172a.89.89,0,1,0,.89.89A.891.891,0,0,0,129.157,406.172Z" transform="translate(-128.267 -406.172)" fill="#42e1ff"/>
        </g>
      </g>
      <g id="Group_115" data-name="Group 115" transform="translate(22.043 19.746)">
        <g id="Group_114" data-name="Group 114" transform="translate(0 0)">
          <path id="Path_87" data-name="Path 87" d="M411.345,406.172a.89.89,0,1,0,.89.89A.891.891,0,0,0,411.345,406.172Z" transform="translate(-410.455 -406.172)" fill="#42e1ff"/>
        </g>
      </g>
      <g id="Group_117" data-name="Group 117" transform="translate(11.021 17.909)">
        <g id="Group_116" data-name="Group 116" transform="translate(0 0)">
          <path id="Path_88" data-name="Path 88" d="M212.087,371.967h-6.429a.431.431,0,1,0,0,.861h6.429a.431.431,0,1,0,0-.861Z" transform="translate(-205.227 -371.967)" fill="#42e1ff"/>
        </g>
      </g>
      <g id="Group_119" data-name="Group 119" transform="translate(0.918 16.072)">
        <g id="Group_118" data-name="Group 118">
          <path id="Path_89" data-name="Path 89" d="M23.043,337.763H17.533a.431.431,0,1,0,0,.861h5.511a.431.431,0,1,0,0-.861Z" transform="translate(-17.102 -337.763)" fill="#42e1ff"/>
        </g>
      </g>
      <g id="Group_121" data-name="Group 121" transform="translate(4.592 9.643)">
        <g id="Group_120" data-name="Group 120" transform="translate(0 0)">
          <path id="Path_90" data-name="Path 90" d="M87.778,218.046H85.942a.431.431,0,0,0-.431.431v3.674a.431.431,0,1,0,.861,0v-1.406h.947a.431.431,0,1,0,0-.861h-.947v-.976h1.406a.431.431,0,1,0,0-.861Z" transform="translate(-85.511 -218.046)" fill="#42e1ff"/>
        </g>
      </g>
      <g id="Group_123" data-name="Group 123" transform="translate(7.807 9.643)">
        <g id="Group_122" data-name="Group 122">
          <path id="Path_91" data-name="Path 91" d="M147.81,220.946a1.578,1.578,0,0,0-.862-2.9H145.8a.431.431,0,0,0-.431.431v3.674a.431.431,0,0,0,.861,0V221.2h.717l.791,1.186a.43.43,0,1,0,.716-.478Zm-.862-.6h-.718v-1.435h.718a.718.718,0,0,1,0,1.435Z" transform="translate(-145.369 -218.046)" fill="#42e1ff"/>
        </g>
      </g>
      <g id="Group_125" data-name="Group 125" transform="translate(11.481 9.643)">
        <g id="Group_124" data-name="Group 124" transform="translate(0 0)">
          <path id="Path_92" data-name="Path 92" d="M216.045,221.72h-1.406v-.977h.947a.431.431,0,1,0,0-.861h-.947v-.977h1.406a.431.431,0,0,0,0-.861h-1.837a.431.431,0,0,0-.431.431v3.674a.431.431,0,0,0,.431.431h1.837a.431.431,0,1,0,0-.861Z" transform="translate(-213.778 -218.046)" fill="#42e1ff"/>
        </g>
      </g>
      <g id="Group_127" data-name="Group 127" transform="translate(14.695 9.643)">
        <g id="Group_126" data-name="Group 126" transform="translate(0 0)">
          <path id="Path_93" data-name="Path 93" d="M275.9,221.72H274.5v-.976h.488a.431.431,0,1,0,0-.861H274.5v-.976H275.9a.431.431,0,0,0,0-.861h-1.837a.431.431,0,0,0-.431.431v3.674a.431.431,0,0,0,.431.431H275.9a.431.431,0,1,0,0-.861Z" transform="translate(-273.636 -218.046)" fill="#42e1ff"/>
        </g>
      </g>
    </g>
  </g>
</svg>
