<svg xmlns="http://www.w3.org/2000/svg" width="40" height="40" viewBox="0 0 40 40">
  <g id="Group_304" data-name="Group 304" transform="translate(-58 -343)">
    <g id="Group_173" data-name="Group 173" transform="translate(3 -146)">
      <path id="Path_149" data-name="Path 149" d="M20,0A20,20,0,1,1,0,20,20,20,0,0,1,20,0Z" transform="translate(55 489)" fill="#2e3339"/>
    </g>
    <path id="heart_1_" data-name="heart (1)" d="M3.113,4.562a5.337,5.337,0,0,1,7.549,0L11.69,5.591l1.029-1.029a5.338,5.338,0,0,1,7.549,7.549L19.24,13.14,11.69,20.689,4.141,13.14,3.113,12.111a5.337,5.337,0,0,1,0-7.549Z" transform="translate(66.951 351.502)" fill="#42e1ff" stroke="#42e1ff" stroke-linecap="round" stroke-linejoin="round" stroke-width="1.5"/>
  </g>
</svg>
