<svg xmlns="http://www.w3.org/2000/svg" width="62" height="62" viewBox="0 0 62 62">
  <g id="Group_138" data-name="Group 138" transform="translate(-89 -628)">
    <path id="Path_138" data-name="Path 138" d="M31,0A31,31,0,1,1,0,31,31,31,0,0,1,31,0Z" transform="translate(89 628)" fill="#ff3365"/>
    <g id="coat" transform="translate(18.998 624)">
      <path id="Path_3" data-name="Path 3" d="M114.53,44.332l-3.791-24.008h0a.632.632,0,0,0-.45-.509l-5.023-1.435-.891-2A.632.632,0,0,0,103.8,16H98.743a.632.632,0,0,0-.577.375l-.891,2-5.023,1.435a.632.632,0,0,0-.45.509h0L88.01,44.332a.632.632,0,0,0,.624.73H91.7L90.542,50.62a.632.632,0,0,0,.336.694,26.492,26.492,0,0,0,10.391,2.594,26.492,26.492,0,0,0,10.391-2.594A.632.632,0,0,0,112,50.62l-1.158-5.557h3.066a.632.632,0,0,0,.624-.73Zm-5.122-23.455-1.732,11.549h-3.4l-1.346-4.712,3.9-5.009a.632.632,0,0,0,.079-.644l-.967-2.176ZM101.9,34.954V33.69h5.686v1.264Zm-6.95-1.264h3.159v1.264H94.952Zm4.423,0h1.264v1.264H99.374ZM96.938,22.247l1.72-3.87,2.008,6.023,1.5,5.254ZM102,24.459l.018-.063,1.883-5.981,1.7,3.814-3.1,3.98Zm-.672-2.078-1.706-5.118h3.317Zm-4.72-2.5-.967,2.176a.632.632,0,0,0,.061.621l5.187,7.348a.631.631,0,0,0,.728,1.031l.964,1.366H94.864L93.132,20.878ZM89.373,43.8l3.036-19.224,1.279,8.531v2.415L91.963,43.8Zm2.508,6.589,2.952-14.17h8.331V52.53a16.506,16.506,0,0,1-1.9.114A25.141,25.141,0,0,1,91.882,50.388Zm12.547,1.954V36.218h3.277l2.952,14.171A28.258,28.258,0,0,1,104.429,52.341Zm6.147-8.542-1.725-8.279V33.105l1.279-8.531L113.166,43.8Z" transform="translate(0 0)" fill="#eff2f5"/>
      <circle id="Ellipse_6" data-name="Ellipse 6" cx="0.5" cy="0.5" r="0.5" transform="translate(101.002 38)" fill="#eff2f5"/>
      <circle id="Ellipse_7" data-name="Ellipse 7" cx="0.5" cy="0.5" r="0.5" transform="translate(101.002 41)" fill="#eff2f5"/>
      <circle id="Ellipse_8" data-name="Ellipse 8" cx="0.5" cy="0.5" r="0.5" transform="translate(101.002 45)" fill="#eff2f5"/>
    </g>
  </g>
</svg>
