<svg xmlns="http://www.w3.org/2000/svg" xmlns:xlink="http://www.w3.org/1999/xlink" width="95" height="95" viewBox="0 0 95 95">
  <defs>
    <filter id="Ellipse_26" x="10" y="10" width="85" height="85" filterUnits="userSpaceOnUse">
      <feOffset dx="5" dy="5" input="SourceAlpha"/>
      <feGaussianBlur stdDeviation="7.5" result="blur"/>
      <feFlood flood-opacity="0.4"/>
      <feComposite operator="in" in2="blur"/>
      <feComposite in="SourceGraphic"/>
    </filter>
    <filter id="Ellipse_27" x="0" y="0" width="85" height="85" filterUnits="userSpaceOnUse">
      <feOffset dx="-5" dy="-5" input="SourceAlpha"/>
      <feGaussianBlur stdDeviation="7.5" result="blur-2"/>
      <feFlood flood-color="#fff" flood-opacity="0.051"/>
      <feComposite operator="in" in2="blur-2"/>
      <feComposite in="SourceGraphic"/>
    </filter>
  </defs>
  <g id="Group_130" data-name="Group 130" transform="translate(-97.5 -451.5)">
    <g id="Group_106" data-name="Group 106" transform="translate(70 -10)">
      <g transform="matrix(1, 0, 0, 1, 27.5, 461.5)" filter="url(#Ellipse_26)">
        <circle id="Ellipse_26-2" data-name="Ellipse 26" cx="20" cy="20" r="20" transform="translate(27.5 27.5)" fill="#2e3339"/>
      </g>
      <g transform="matrix(1, 0, 0, 1, 27.5, 461.5)" filter="url(#Ellipse_27)">
        <circle id="Ellipse_27-2" data-name="Ellipse 27" cx="20" cy="20" r="20" transform="translate(27.5 27.5)" fill="#2e3339"/>
      </g>
    </g>
    <g id="diploma" transform="translate(133 488)">
      <path id="Path_77" data-name="Path 77" d="M22.446,0H1.286A1.289,1.289,0,0,0,0,1.287V5.948a.351.351,0,0,0,.7,0V1.287A.586.586,0,0,1,1.286.7h21.16a.586.586,0,0,1,.585.585V15.331a.586.586,0,0,1-.585.585H15.177a3.354,3.354,0,0,0,0-.983h4.554a.351.351,0,0,0,.351-.351A1.617,1.617,0,0,1,21.7,12.967a.351.351,0,0,0,.351-.351V6.644a.351.351,0,0,0-.7,0v5.648a2.323,2.323,0,0,0-1.94,1.94H14.992a3.346,3.346,0,0,0-6.253,0H4.326a2.323,2.323,0,0,0-1.94-1.94V4.327a2.323,2.323,0,0,0,1.94-1.94h15.08a2.323,2.323,0,0,0,1.94,1.94v.679a.351.351,0,0,0,.7,0V4a.351.351,0,0,0-.351-.351,1.617,1.617,0,0,1-1.615-1.615.351.351,0,0,0-.351-.351H4a.351.351,0,0,0-.351.351A1.617,1.617,0,0,1,2.035,3.651.351.351,0,0,0,1.684,4v8.614a.351.351,0,0,0,.351.351A1.617,1.617,0,0,1,3.65,14.582.351.351,0,0,0,4,14.933H8.555a3.355,3.355,0,0,0,0,.983H1.286A.586.586,0,0,1,.7,15.331V7.581a.351.351,0,0,0-.7,0v7.751a1.289,1.289,0,0,0,1.287,1.287H8.74a3.346,3.346,0,0,0,.481.854V21.23a.351.351,0,0,0,.484.325l2.161-.882,2.161.882a.351.351,0,0,0,.484-.325v-1a.351.351,0,0,0-.7,0v.482L12,19.968a.353.353,0,0,0-.265,0l-1.81.739V18.148a3.336,3.336,0,0,0,3.886,0v.437a.351.351,0,1,0,.7,0V17.473a3.346,3.346,0,0,0,.481-.854h7.454a1.289,1.289,0,0,0,1.287-1.287V1.287A1.289,1.289,0,0,0,22.446,0ZM11.866,18.07a2.645,2.645,0,1,1,2.645-2.645A2.648,2.648,0,0,1,11.866,18.07Zm0,0" transform="translate(0.001)" fill="#42e1ff"/>
      <path id="Path_78" data-name="Path 78" d="M188.3,85.53a.351.351,0,0,0,0-.7h-6.18a.351.351,0,0,0,0,.7Zm0,0" transform="translate(-173.346 -80.896)" fill="#42e1ff"/>
      <path id="Path_79" data-name="Path 79" d="M142.494,125.223H131.633a.351.351,0,0,0,0,.7h10.861a.351.351,0,0,0,0-.7Zm0,0" transform="translate(-125.196 -119.418)" fill="#42e1ff"/>
      <path id="Path_80" data-name="Path 80" d="M142.494,165.617H131.633a.351.351,0,0,0,0,.7h10.861a.351.351,0,0,0,0-.7Zm0,0" transform="translate(-125.196 -157.94)" fill="#42e1ff"/>
      <path id="Path_81" data-name="Path 81" d="M331.252,212.07h-1.685a.351.351,0,0,0,0,.7h1.685a.351.351,0,0,0,0-.7Zm0,0" transform="translate(-313.954 -202.239)" fill="#42e1ff"/>
      <path id="Path_82" data-name="Path 82" d="M131.632,212.07a.351.351,0,1,0,0,.7h1.685a.351.351,0,1,0,0-.7Zm0,0" transform="translate(-125.195 -202.239)" fill="#42e1ff"/>
      <path id="Path_83" data-name="Path 83" d="M217.959,292.859a1.849,1.849,0,1,0,1.849,1.849A1.851,1.851,0,0,0,217.959,292.859Zm0,3a1.147,1.147,0,1,1,1.147-1.147A1.148,1.148,0,0,1,217.959,295.855Zm0,0" transform="translate(-206.091 -279.283)" fill="#42e1ff"/>
      <path id="Path_84" data-name="Path 84" d="M230.25,195.089a1.194,1.194,0,1,0,1.194-1.194A1.195,1.195,0,0,0,230.25,195.089Zm1.685,0a.492.492,0,1,1-.492-.492A.492.492,0,0,1,231.935,195.089Zm0,0" transform="translate(-219.576 -184.907)" fill="#42e1ff"/>
    </g>
  </g>
</svg>
