<svg xmlns="http://www.w3.org/2000/svg" width="18.16" height="18.161" viewBox="0 0 18.16 18.161">
  <path id="home-run" d="M17.672,7.9h0L10.262.489A1.672,1.672,0,0,0,7.9.489l-7.4,7.4L.485,7.9A1.671,1.671,0,0,0,1.6,10.75l.052,0h.3V16.2A1.959,1.959,0,0,0,3.9,18.161H6.8a.532.532,0,0,0,.532-.532V13.354a.894.894,0,0,1,.893-.893h1.71a.894.894,0,0,1,.893.893v4.274a.532.532,0,0,0,.532.532h2.9A1.959,1.959,0,0,0,16.215,16.2V10.752h.274A1.672,1.672,0,0,0,17.672,7.9Zm0,0" transform="translate(0 0.001)"/>
</svg>
