<svg xmlns="http://www.w3.org/2000/svg" xmlns:xlink="http://www.w3.org/1999/xlink" width="20.531" height="20.535" viewBox="0 0 20.531 20.535">
  <defs>
    <linearGradient id="linear-gradient" x1="0.1" y1="1" x2="0.911" y2="0.068" gradientUnits="objectBoundingBox">
      <stop offset="0" stop-color="#fd5"/>
      <stop offset="0.532" stop-color="#ff543e"/>
      <stop offset="1" stop-color="#c837ab"/>
    </linearGradient>
  </defs>
  <g id="instagram-sketched" transform="translate(0.07 0.038)">
    <path id="Path_144" data-name="Path 144" d="M1.269,1.387C-.34,3.058-.01,4.833-.01,10.226c0,4.478-.781,8.968,3.308,10.024a97.451,97.451,0,0,0,13.866,0,4.4,4.4,0,0,0,3.277-4.228c.026-.336.026-11.247,0-11.59A4.4,4.4,0,0,0,16.58.088a18.417,18.417,0,0,0-3.019-.094C4.883,0,2.981-.388,1.269,1.387Z" transform="translate(0 0)" fill="url(#linear-gradient)"/>
    <path id="Path_145" data-name="Path 145" d="M10.695,3.138c-3.1,0-6.038-.276-7.162,2.608-.464,1.191-.4,2.737-.4,4.952a15.776,15.776,0,0,0,.4,4.951c1.121,2.885,4.086,2.608,7.16,2.608,2.966,0,6.024.309,7.161-2.608.465-1.2.4-2.726.4-4.951,0-2.953.163-4.86-1.269-6.291-1.45-1.45-3.411-1.268-6.29-1.268ZM10.018,4.5c6.461-.01,7.283-.728,6.829,9.249C16.685,17.278,14,16.891,10.7,16.891c-6.022,0-6.2-.172-6.2-6.2,0-6.095.478-6.19,5.517-6.2ZM14.73,5.755a.907.907,0,1,0,.907.907A.907.907,0,0,0,14.73,5.755Zm-4.035,1.06a3.882,3.882,0,1,0,3.88,3.882,3.882,3.882,0,0,0-3.88-3.882Zm0,1.362c3.331,0,3.335,5.04,0,5.04S7.36,8.177,10.695,8.177Z" transform="translate(-0.471 -0.466)" fill="#fff"/>
  </g>
</svg>
