<svg id="jeans" xmlns="http://www.w3.org/2000/svg" width="19.882" height="19.914" viewBox="0 0 19.882 19.914">
  <g id="Group_5" data-name="Group 5" transform="translate(0)">
    <g id="Group_4" data-name="Group 4">
      <path id="Path_5" data-name="Path 5" d="M19.988,7.856,14.217,3.9a.69.69,0,0,0-.958.178l-1.7,2.47.247.169L10.724,8.046V0H2.088V2.09L.405,6.477l1.553,12.11a1.518,1.518,0,0,0,1.464,1.326H11.3a1.155,1.155,0,0,0,.95-.5L18.2,11.1l.272.187,1.7-2.47A.69.69,0,0,0,19.988,7.856ZM2.678.59h7.455V1.85H2.678ZM9.622,19.323v-.845h-.59v.845H3.422a.919.919,0,0,1-.878-.811L1.009,6.55,2.586,2.44H9.031v.925h.59V2.44h.512V18.754a1.149,1.149,0,0,0,.151.57Zm2.145-.252,0,0a.565.565,0,0,1-.465.247.573.573,0,0,1-.574-.57V8.98L12.3,7.048l.442.3,4.971,3.411ZM19.68,8.479l-1.361,1.984-1.066-.731L12.385,6.391l1.361-1.984a.1.1,0,0,1,.137-.025l5.772,3.96A.1.1,0,0,1,19.68,8.479Z" transform="translate(-0.405)" fill="#445667"/>
    </g>
  </g>
  <g id="Group_7" data-name="Group 7" transform="translate(7.544 0.945)">
    <g id="Group_6" data-name="Group 6">
      <rect id="Rectangle_9" data-name="Rectangle 9" width="0.59" height="0.59" fill="#445667"/>
    </g>
  </g>
  <g id="Group_9" data-name="Group 9" transform="translate(6.363 0.945)">
    <g id="Group_8" data-name="Group 8">
      <rect id="Rectangle_10" data-name="Rectangle 10" width="0.59" height="0.59" fill="#445667"/>
    </g>
  </g>
  <g id="Group_11" data-name="Group 11" transform="translate(8.725 0.945)">
    <g id="Group_10" data-name="Group 10">
      <rect id="Rectangle_11" data-name="Rectangle 11" width="0.59" height="0.59" fill="#445667"/>
    </g>
  </g>
  <g id="Group_13" data-name="Group 13" transform="translate(2.821 0.945)">
    <g id="Group_12" data-name="Group 12">
      <rect id="Rectangle_12" data-name="Rectangle 12" width="0.59" height="0.59" fill="#445667"/>
    </g>
  </g>
  <g id="Group_15" data-name="Group 15" transform="translate(4.002 0.945)">
    <g id="Group_14" data-name="Group 14">
      <rect id="Rectangle_13" data-name="Rectangle 13" width="0.59" height="0.59" fill="#445667"/>
    </g>
  </g>
  <g id="Group_17" data-name="Group 17" transform="translate(5.182 0.945)">
    <g id="Group_16" data-name="Group 16">
      <rect id="Rectangle_14" data-name="Rectangle 14" width="0.59" height="0.59" fill="#445667"/>
    </g>
  </g>
  <g id="Group_19" data-name="Group 19" transform="translate(2.742 4.959)">
    <g id="Group_18" data-name="Group 18">
      <path id="Path_6" data-name="Path 6" d="M70.914,127.5v3.05a2.263,2.263,0,0,0,4.526,0V127.5Zm3.936,3.05a1.673,1.673,0,0,1-3.345,0v-1.279H74.85v1.279Zm0-1.869H71.5v-.59H74.85Z" transform="translate(-70.914 -127.501)" fill="#445667"/>
    </g>
  </g>
  <g id="Group_21" data-name="Group 21" transform="translate(8.626 7.616)">
    <g id="Group_20" data-name="Group 20">
      <rect id="Rectangle_15" data-name="Rectangle 15" width="0.59" height="1.181" fill="#445667"/>
    </g>
  </g>
  <g id="Group_23" data-name="Group 23" transform="translate(8.626 13.047)">
    <g id="Group_22" data-name="Group 22">
      <rect id="Rectangle_16" data-name="Rectangle 16" width="0.59" height="1.181" fill="#445667"/>
    </g>
  </g>
  <g id="Group_25" data-name="Group 25" transform="translate(8.626 14.857)">
    <g id="Group_24" data-name="Group 24">
      <rect id="Rectangle_17" data-name="Rectangle 17" width="0.59" height="1.181" fill="#445667"/>
    </g>
  </g>
  <g id="Group_27" data-name="Group 27" transform="translate(8.626 16.668)">
    <g id="Group_26" data-name="Group 26">
      <rect id="Rectangle_18" data-name="Rectangle 18" width="0.59" height="1.181" fill="#445667"/>
    </g>
  </g>
  <g id="Group_29" data-name="Group 29" transform="translate(8.626 11.236)">
    <g id="Group_28" data-name="Group 28">
      <rect id="Rectangle_19" data-name="Rectangle 19" width="0.59" height="1.181" fill="#445667"/>
    </g>
  </g>
  <g id="Group_31" data-name="Group 31" transform="translate(8.626 3.995)">
    <g id="Group_30" data-name="Group 30">
      <rect id="Rectangle_20" data-name="Rectangle 20" width="0.59" height="1.181" fill="#445667"/>
    </g>
  </g>
  <g id="Group_33" data-name="Group 33" transform="translate(8.626 5.805)">
    <g id="Group_32" data-name="Group 32">
      <rect id="Rectangle_21" data-name="Rectangle 21" width="0.59" height="1.181" fill="#445667"/>
    </g>
  </g>
  <g id="Group_35" data-name="Group 35" transform="translate(8.626 9.426)">
    <g id="Group_34" data-name="Group 34">
      <rect id="Rectangle_22" data-name="Rectangle 22" width="0.59" height="1.181" fill="#445667"/>
    </g>
  </g>
</svg>
