<svg id="place_2_" data-name="place (2)" xmlns="http://www.w3.org/2000/svg" width="13.109" height="16.203" viewBox="0 0 13.109 16.203">
  <g id="Group_267" data-name="Group 267">
    <g id="Group_266" data-name="Group 266">
      <path id="Path_138" data-name="Path 138" d="M60.819,2.817a6.542,6.542,0,0,0-10.756,0A6.543,6.543,0,0,0,49.3,8.846a5.153,5.153,0,0,0,.95,1.568L55.009,16a.566.566,0,0,0,.863,0l4.758-5.588a5.158,5.158,0,0,0,.95-1.566A6.544,6.544,0,0,0,60.819,2.817Zm-.3,5.635a4.041,4.041,0,0,1-.747,1.224l0,0L55.44,14.763,51.11,9.676a4.044,4.044,0,0,1-.749-1.228,5.412,5.412,0,0,1,.633-4.987,5.409,5.409,0,0,1,8.892,0A5.413,5.413,0,0,1,60.518,8.453Z" transform="translate(-48.886 0)" fill="#ff3365"/>
    </g>
  </g>
  <g id="Group_269" data-name="Group 269" transform="translate(3.382 3.361)">
    <g id="Group_268" data-name="Group 268">
      <path id="Path_139" data-name="Path 139" d="M158.927,106.219a3.173,3.173,0,1,0,3.173,3.173A3.176,3.176,0,0,0,158.927,106.219Zm0,5.212a2.04,2.04,0,1,1,2.04-2.04A2.042,2.042,0,0,1,158.927,111.431Z" transform="translate(-155.754 -106.219)" fill="#ff3365"/>
    </g>
  </g>
</svg>
