<svg xmlns="http://www.w3.org/2000/svg" width="20.32" height="17.956" viewBox="0 0 20.32 17.956">
  <path id="XMLID_810_" d="M18.635,29.2a5.76,5.76,0,0,0-8.155,0l-.314.314-.322-.322A5.765,5.765,0,0,0,0,33.269a5.716,5.716,0,0,0,1.694,4.075L9.548,45.2a.881.881,0,0,0,.623.258.9.9,0,0,0,.623-.258l7.832-7.841a5.77,5.77,0,0,0,.009-8.159ZM5.7,31.356A1.869,1.869,0,0,0,3.83,33.222a.855.855,0,1,1-1.711,0,3.578,3.578,0,0,1,3.572-3.572.855.855,0,0,1,.855.855A.845.845,0,0,1,5.7,31.356Z" transform="translate(0 -27.5)"/>
</svg>
