<svg xmlns="http://www.w3.org/2000/svg" width="40" height="40" viewBox="0 0 40 40">
  <g id="Group_274" data-name="Group 274" transform="translate(-8)">
    <g id="Group_245" data-name="Group 245" transform="translate(8)">
      <circle id="Ellipse_26" data-name="Ellipse 26" cx="20" cy="20" r="20" fill="#2e3339"/>
    </g>
    <g id="surface1" transform="translate(17 12)">
      <path id="Path_129" data-name="Path 129" d="M108.1,79.66c1.807,0,3.28-1.109,3.28-2.469s-1.469-2.469-3.28-2.469-3.28,1.109-3.28,2.469S106.289,79.66,108.1,79.66Zm0-4.06c1.315,0,2.4.728,2.4,1.592s-1.1,1.592-2.4,1.592-2.4-.728-2.4-1.592,1.1-1.6,2.4-1.6Zm0,0" transform="translate(-100.62 -71.745)" fill="#42e1ff" stroke="#42e1ff" stroke-width="0.25"/>
      <path id="Path_130" data-name="Path 130" d="M21.381,10.362H14.909V5.8c0-3-3.337-5.442-7.454-5.442S0,2.8,0,5.8v5.394c0,2.762,2.828,5.043,6.472,5.389h.075c.3.026.609.048.921.048H21.381a.439.439,0,0,0,.439-.439V10.8A.439.439,0,0,0,21.381,10.362ZM7.476,1.237c3.617,0,6.577,2.048,6.577,4.565s-2.942,4.565-6.577,4.565S.9,8.318.9,5.8,3.863,1.237,7.476,1.237Zm6.577,7.121v2H11.51a6.612,6.612,0,0,0,2.521-2Zm6.889,7.393h-.877V13.532a.438.438,0,1,0-.877,0v2.223H17.434V14.549a.439.439,0,0,0-.877,0v1.206H14.8V14.549a.439.439,0,1,0-.877,0v1.206H12.172V13.532a.439.439,0,1,0-.877,0v2.223H9.616V14.549a.439.439,0,0,0-.877,0v1.206H6.985V14.549a.439.439,0,1,0-.877,0v1.1C3.148,15.212.921,13.379.921,11.186V8.358A8.137,8.137,0,0,0,7.5,11.239H20.942Zm0,0" transform="translate(0 -0.355)" fill="#42e1ff" stroke="#42e1ff" stroke-width="0.25"/>
    </g>
  </g>
</svg>
