<svg xmlns="http://www.w3.org/2000/svg" width="16.485" height="15.552" viewBox="0 0 16.485 15.552">
  <path id="money-transfer" d="M12.622,27.508H7.728a.644.644,0,1,1,0-1.288h4.894A2.579,2.579,0,0,0,15.2,23.644v-5.28a2.579,2.579,0,0,0-2.576-2.576H3.864a2.579,2.579,0,0,0-2.576,2.576v4.959a.322.322,0,0,0,.322.322H3.542a.644.644,0,1,1,0,1.288H1.61A1.612,1.612,0,0,1,0,23.322V18.364A3.868,3.868,0,0,1,3.864,14.5h8.758a3.868,3.868,0,0,1,3.864,3.864v5.28A3.868,3.868,0,0,1,12.622,27.508ZM5.8,26.863a.644.644,0,0,0-.644-.644H.644a.644.644,0,1,0,0,1.288H5.152A.644.644,0,0,0,5.8,26.863Zm1.932,2.544a.644.644,0,0,0-.644-.644H.644a.644.644,0,1,0,0,1.288h6.44A.644.644,0,0,0,7.728,29.408ZM10.819,21A2.576,2.576,0,1,0,8.243,23.58,2.579,2.579,0,0,0,10.819,21ZM9.531,21a1.288,1.288,0,1,1-1.288-1.288A1.289,1.289,0,0,1,9.531,21Zm4.411-2.157A.644.644,0,0,0,13.3,18.2a.484.484,0,0,1-.483-.483.644.644,0,1,0-1.288,0A1.773,1.773,0,0,0,13.3,19.491.644.644,0,0,0,13.942,18.847ZM5.023,17.784a.644.644,0,0,0-1.288,0,.484.484,0,0,1-.483.483.644.644,0,1,0,0,1.288A1.773,1.773,0,0,0,5.023,17.784Zm7.792,6.5a.484.484,0,0,1,.483-.483.644.644,0,1,0,0-1.288,1.773,1.773,0,0,0-1.771,1.771.644.644,0,1,0,1.288,0Z" transform="translate(0 -14.5)" fill="#42e1ff"/>
</svg>
