<svg xmlns="http://www.w3.org/2000/svg" xmlns:xlink="http://www.w3.org/1999/xlink" width="95" height="95" viewBox="0 0 95 95">
  <defs>
    <filter id="Ellipse_26" x="10" y="10" width="85" height="85" filterUnits="userSpaceOnUse">
      <feOffset dx="5" dy="5" input="SourceAlpha"/>
      <feGaussianBlur stdDeviation="7.5" result="blur"/>
      <feFlood flood-opacity="0.4"/>
      <feComposite operator="in" in2="blur"/>
      <feComposite in="SourceGraphic"/>
    </filter>
    <filter id="Ellipse_27" x="0" y="0" width="85" height="85" filterUnits="userSpaceOnUse">
      <feOffset dx="-5" dy="-5" input="SourceAlpha"/>
      <feGaussianBlur stdDeviation="7.5" result="blur-2"/>
      <feFlood flood-color="#fff" flood-opacity="0.051"/>
      <feComposite operator="in" in2="blur-2"/>
      <feComposite in="SourceGraphic"/>
    </filter>
  </defs>
  <g id="Group_129" data-name="Group 129" transform="translate(-186.5 -451.5)">
    <g id="Group_107" data-name="Group 107" transform="translate(159 -10)">
      <g transform="matrix(1, 0, 0, 1, 27.5, 461.5)" filter="url(#Ellipse_26)">
        <circle id="Ellipse_26-2" data-name="Ellipse 26" cx="20" cy="20" r="20" transform="translate(27.5 27.5)" fill="#2e3339"/>
      </g>
      <g transform="matrix(1, 0, 0, 1, 27.5, 461.5)" filter="url(#Ellipse_27)">
        <circle id="Ellipse_27-2" data-name="Ellipse 27" cx="20" cy="20" r="20" transform="translate(27.5 27.5)" fill="#2e3339"/>
      </g>
    </g>
    <g id="support" transform="translate(222 487)">
      <g id="Group_109" data-name="Group 109" transform="translate(8.896 10.134)">
        <path id="Path_73" data-name="Path 73" d="M195.7,223.551a.3.3,0,0,1-.307.307h-1.975a.31.31,0,0,1-.223-.536l1.652-1.5a.722.722,0,0,0-.915-1.116c-.123.089-.226.25-.383.277a.311.311,0,0,1-.342-.205c-.078-.223.113-.356.256-.486a1.318,1.318,0,0,1,.9-.346,1.343,1.343,0,0,1,.993.441,1.318,1.318,0,0,1,.346.9,1.344,1.344,0,0,1-.441.993l-1.055.954h1.188A.307.307,0,0,1,195.7,223.551Z" transform="translate(-193.094 -219.952)" fill="#42e1ff"/>
        <path id="Path_74" data-name="Path 74" d="M254.746,222.876a.307.307,0,0,1-.312.307h-.056v.424a.307.307,0,1,1-.614,0v-.424h-1.746a.308.308,0,0,1-.251-.5c.071-.088,2.041-2.544,2.064-2.566a.487.487,0,0,1,.067-.059.31.31,0,0,1,.48.254v2.254h.056A.311.311,0,0,1,254.746,222.876Zm-.982-1.685-1.11,1.378h1.11Z" transform="translate(-249.001 -220.008)" fill="#42e1ff"/>
      </g>
      <path id="Path_75" data-name="Path 75" d="M21.747,8.1a10.166,10.166,0,0,0-19.906,0A2.174,2.174,0,0,0,0,10.236V11.38a.346.346,0,0,0,.691,0V10.236a1.484,1.484,0,0,1,1.49-1.474H2.9v7.17H2.181a1.484,1.484,0,0,1-1.49-1.474V13.13a.346.346,0,0,0-.691,0v1.327a2.176,2.176,0,0,0,2.181,2.165h.758a1.1,1.1,0,0,0,2.155-.28V8.35a1.1,1.1,0,0,0-2.155-.28H2.55a9.48,9.48,0,0,1,18.489,0h-.39a1.1,1.1,0,0,0-2.155.28v7.992a1.1,1.1,0,0,0,2.155.28h.385a7.059,7.059,0,0,1-6.883,5.527,1.1,1.1,0,0,0-1.038-.74H10.475a1.089,1.089,0,1,0,0,2.179h2.638a1.1,1.1,0,0,0,1.04-.748A7.745,7.745,0,0,0,21.741,16.6a2.174,2.174,0,0,0,1.848-2.14V10.236A2.174,2.174,0,0,0,21.747,8.1ZM3.594,8.35a.405.405,0,0,1,.81,0v7.992a.405.405,0,0,1-.81,0ZM13.113,22.9H10.475a.4.4,0,0,1,0-.8h2.638A.4.4,0,0,1,13.113,22.9ZM20,16.342a.405.405,0,0,1-.81,0V8.35a.405.405,0,0,1,.81,0Zm2.9-1.885a1.484,1.484,0,0,1-1.49,1.474h-.721V8.761h.721a1.484,1.484,0,0,1,1.49,1.474Z" fill="#42e1ff"/>
      <path id="Path_76" data-name="Path 76" d="M139.644,150.322l2.078.915a.349.349,0,0,0,.485-.316v-2.312a5.622,5.622,0,0,0,.3-6.944.346.346,0,0,0-.561.4,4.932,4.932,0,0,1-.342,6.18.346.346,0,0,0-.089.231v1.912l-1.716-.756a.345.345,0,0,0-.255-.01,4.967,4.967,0,1,1,1.177-8.759.346.346,0,0,0,.393-.569,5.662,5.662,0,1,0-1.47,10.023Z" transform="translate(-126.064 -132.87)" fill="#42e1ff"/>
    </g>
  </g>
</svg>
