<svg id="Group_109" data-name="Group 109" xmlns="http://www.w3.org/2000/svg" width="29" height="29" viewBox="0 0 29 29">
  <circle id="Ellipse_17" data-name="Ellipse 17" cx="14.5" cy="14.5" r="14.5" fill="#22557f"/>
  <g id="phone" transform="translate(7.755 7.755)">
    <path id="Path_59" data-name="Path 59" d="M9.117,12.685A3.534,3.534,0,0,1,7.9,12.468,12.929,12.929,0,0,1,3.21,9.476,12.928,12.928,0,0,1,.217,4.781,3.509,3.509,0,0,1,.038,3.056,3.6,3.6,0,0,1,1.887.422,3.532,3.532,0,0,1,3.578,0a.4.4,0,0,1,.388.313l.622,2.9a.4.4,0,0,1-.107.363L3.418,4.643A10.434,10.434,0,0,0,8.042,9.268L9.105,8.2A.4.4,0,0,1,9.469,8.1l2.9.622a.4.4,0,0,1,.313.388,3.532,3.532,0,0,1-.423,1.691,3.6,3.6,0,0,1-2.634,1.849A3.526,3.526,0,0,1,9.117,12.685ZM3.262.81a2.778,2.778,0,0,0-2.3,3.7,12.023,12.023,0,0,0,7.213,7.213,2.778,2.778,0,0,0,3.7-2.3L9.513,8.918,8.4,10.028a.4.4,0,0,1-.449.078A11.224,11.224,0,0,1,2.579,4.731a.4.4,0,0,1,.078-.449l1.11-1.11Z" transform="translate(0 0)" fill="#fff"/>
  </g>
</svg>
