<svg xmlns="http://www.w3.org/2000/svg" width="13.125" height="16.223" viewBox="0 0 13.125 16.223">
  <g id="place_2_" data-name="place (2)" transform="translate(-48.886)">
    <g id="Group_267" data-name="Group 267" transform="translate(48.886)">
      <g id="Group_266" data-name="Group 266">
        <path id="Path_138" data-name="Path 138" d="M60.833,2.821a6.55,6.55,0,0,0-10.77,0A6.551,6.551,0,0,0,49.3,8.857a5.16,5.16,0,0,0,.951,1.57l4.765,5.6a.567.567,0,0,0,.864,0l4.763-5.6a5.164,5.164,0,0,0,.951-1.568A6.552,6.552,0,0,0,60.833,2.821Zm-.3,5.642a4.046,4.046,0,0,1-.748,1.226l0,0-4.333,5.089L51.113,9.688a4.049,4.049,0,0,1-.75-1.229A5.419,5.419,0,0,1,51,3.466a5.416,5.416,0,0,1,8.9,0A5.42,5.42,0,0,1,60.532,8.463Z" transform="translate(-48.886 0)" fill="#42e1ff"/>
      </g>
    </g>
    <g id="Group_269" data-name="Group 269" transform="translate(52.272 3.366)">
      <g id="Group_268" data-name="Group 268">
        <path id="Path_139" data-name="Path 139" d="M158.931,106.219a3.177,3.177,0,1,0,3.177,3.177A3.18,3.18,0,0,0,158.931,106.219Zm0,5.219a2.042,2.042,0,1,1,2.042-2.042A2.044,2.044,0,0,1,158.931,111.438Z" transform="translate(-155.754 -106.219)" fill="#42e1ff"/>
      </g>
    </g>
  </g>
</svg>
