<svg xmlns="http://www.w3.org/2000/svg" xmlns:xlink="http://www.w3.org/1999/xlink" width="95" height="95" viewBox="0 0 95 95">
  <defs>
    <filter id="Ellipse_26" x="10" y="10" width="85" height="85" filterUnits="userSpaceOnUse">
      <feOffset dx="5" dy="5" input="SourceAlpha"/>
      <feGaussianBlur stdDeviation="7.5" result="blur"/>
      <feFlood flood-opacity="0.4"/>
      <feComposite operator="in" in2="blur"/>
      <feComposite in="SourceGraphic"/>
    </filter>
    <filter id="Ellipse_27" x="0" y="0" width="85" height="85" filterUnits="userSpaceOnUse">
      <feOffset dx="-5" dy="-5" input="SourceAlpha"/>
      <feGaussianBlur stdDeviation="7.5" result="blur-2"/>
      <feFlood flood-color="#fff" flood-opacity="0.051"/>
      <feComposite operator="in" in2="blur-2"/>
      <feComposite in="SourceGraphic"/>
    </filter>
  </defs>
  <g id="Group_131" data-name="Group 131" transform="translate(-9.5 -451.5)">
    <g id="Group_105" data-name="Group 105" transform="translate(-18 -10)">
      <g transform="matrix(1, 0, 0, 1, 27.5, 461.5)" filter="url(#Ellipse_26)">
        <circle id="Ellipse_26-2" data-name="Ellipse 26" cx="20" cy="20" r="20" transform="translate(27.5 27.5)" fill="#2e3339"/>
      </g>
      <g transform="matrix(1, 0, 0, 1, 27.5, 461.5)" filter="url(#Ellipse_27)">
        <circle id="Ellipse_27-2" data-name="Ellipse 27" cx="20" cy="20" r="20" transform="translate(27.5 27.5)" fill="#2e3339"/>
      </g>
    </g>
    <path id="money-transfer" d="M12.622,27.508H7.728a.644.644,0,1,1,0-1.288h4.894A2.579,2.579,0,0,0,15.2,23.644v-5.28a2.579,2.579,0,0,0-2.576-2.576H3.864a2.579,2.579,0,0,0-2.576,2.576v4.959a.322.322,0,0,0,.322.322H3.542a.644.644,0,1,1,0,1.288H1.61A1.612,1.612,0,0,1,0,23.322V18.364A3.868,3.868,0,0,1,3.864,14.5h8.758a3.868,3.868,0,0,1,3.864,3.864v5.28A3.868,3.868,0,0,1,12.622,27.508ZM5.8,26.863a.644.644,0,0,0-.644-.644H.644a.644.644,0,1,0,0,1.288H5.152A.644.644,0,0,0,5.8,26.863Zm1.932,2.544a.644.644,0,0,0-.644-.644H.644a.644.644,0,1,0,0,1.288h6.44A.644.644,0,0,0,7.728,29.408ZM10.819,21A2.576,2.576,0,1,0,8.243,23.58,2.579,2.579,0,0,0,10.819,21ZM9.531,21a1.288,1.288,0,1,1-1.288-1.288A1.289,1.289,0,0,1,9.531,21Zm4.411-2.157A.644.644,0,0,0,13.3,18.2a.484.484,0,0,1-.483-.483.644.644,0,1,0-1.288,0A1.773,1.773,0,0,0,13.3,19.491.644.644,0,0,0,13.942,18.847ZM5.023,17.784a.644.644,0,0,0-1.288,0,.484.484,0,0,1-.483.483.644.644,0,1,0,0,1.288A1.773,1.773,0,0,0,5.023,17.784Zm7.792,6.5a.484.484,0,0,1,.483-.483.644.644,0,1,0,0-1.288,1.773,1.773,0,0,0-1.771,1.771.644.644,0,1,0,1.288,0Z" transform="translate(49 476.5)" fill="#42e1ff"/>
  </g>
</svg>
