<svg xmlns="http://www.w3.org/2000/svg" width="28.754" height="28.755" viewBox="0 0 28.754 28.755">
  <g id="sale" transform="translate(-0.01 0)">
    <path id="Path_53" data-name="Path 53" d="M27.443,14.378l1.262-3.29a.9.9,0,0,0-.273-1.021L25.7,7.849l-.554-3.481a.9.9,0,0,0-.748-.746l-3.481-.554L18.7.332A.9.9,0,0,0,17.68.059L14.388,1.322,11.1.061a.9.9,0,0,0-1.019.273L7.861,3.071,4.38,3.624a.9.9,0,0,0-.746.746L3.08,7.851.343,10.069A.9.9,0,0,0,.07,11.088l1.262,3.29L.07,17.669a.9.9,0,0,0,.273,1.019L3.08,20.9l.554,3.481a.9.9,0,0,0,.746.748l3.481.554,2.218,2.735a.894.894,0,0,0,1.021.273l3.289-1.26,3.29,1.262a.9.9,0,0,0,1.021-.275l2.216-2.735,3.481-.554a.9.9,0,0,0,.748-.748L25.7,20.9l2.735-2.216a.9.9,0,0,0,.273-1.019Z" transform="translate(0 0)" fill="#f44336"/>
    <g id="Group_70" data-name="Group 70" transform="translate(8.996 7.189)">
      <path id="Path_54" data-name="Path 54" d="M162.718,133.426a2.7,2.7,0,1,1,2.7-2.7A2.7,2.7,0,0,1,162.718,133.426Zm0-3.594a.9.9,0,1,0,.9.9A.9.9,0,0,0,162.718,129.832Z" transform="translate(-160.022 -128.034)" fill="#fafafa"/>
      <path id="Path_55" data-name="Path 55" d="M258.718,293.426a2.7,2.7,0,1,1,2.7-2.7A2.7,2.7,0,0,1,258.718,293.426Zm0-3.594a.9.9,0,1,0,.9.9A.9.9,0,0,0,258.718,289.832Z" transform="translate(-250.631 -279.049)" fill="#fafafa"/>
      <path id="Path_56" data-name="Path 56" d="M160.934,142.4a.889.889,0,0,1-.521-.167.9.9,0,0,1-.208-1.254l8.985-12.58a.9.9,0,0,1,1.463,1.044l-8.985,12.58A.9.9,0,0,1,160.934,142.4Z" transform="translate(-160.035 -128.017)" fill="#fafafa"/>
    </g>
  </g>
</svg>
