<svg xmlns="http://www.w3.org/2000/svg" xmlns:xlink="http://www.w3.org/1999/xlink" width="95" height="95" viewBox="0 0 95 95">
  <defs>
    <filter id="Ellipse_26" x="10" y="10" width="85" height="85" filterUnits="userSpaceOnUse">
      <feOffset dx="5" dy="5" input="SourceAlpha"/>
      <feGaussianBlur stdDeviation="7.5" result="blur"/>
      <feFlood flood-opacity="0.4"/>
      <feComposite operator="in" in2="blur"/>
      <feComposite in="SourceGraphic"/>
    </filter>
    <filter id="Ellipse_27" x="0" y="0" width="85" height="85" filterUnits="userSpaceOnUse">
      <feOffset dx="-5" dy="-5" input="SourceAlpha"/>
      <feGaussianBlur stdDeviation="7.5" result="blur-2"/>
      <feFlood flood-color="#fff" flood-opacity="0.051"/>
      <feComposite operator="in" in2="blur-2"/>
      <feComposite in="SourceGraphic"/>
    </filter>
  </defs>
  <g id="Group_269" data-name="Group 269" transform="translate(-274.5 -315.5)">
    <g id="Group_240" data-name="Group 240" transform="translate(247 -146)">
      <g transform="matrix(1, 0, 0, 1, 27.5, 461.5)" filter="url(#Ellipse_26)">
        <circle id="Ellipse_26-2" data-name="Ellipse 26" cx="20" cy="20" r="20" transform="translate(27.5 27.5)" fill="#2e3339"/>
      </g>
      <g transform="matrix(1, 0, 0, 1, 27.5, 461.5)" filter="url(#Ellipse_27)">
        <circle id="Ellipse_27-2" data-name="Ellipse 27" cx="20" cy="20" r="20" transform="translate(27.5 27.5)" fill="#2e3339"/>
      </g>
    </g>
    <g id="share" transform="translate(313 354)">
      <path id="Path_128" data-name="Path 128" d="M13.891,10.308a3.582,3.582,0,0,0-2.942,1.54L6.985,9.866a3.586,3.586,0,0,0,0-2.257l3.964-1.982a3.565,3.565,0,1,0-.459-.915L6.526,6.694a3.584,3.584,0,1,0,0,4.087l3.964,1.982a3.584,3.584,0,1,0,3.4-2.455Zm0-9.284a2.56,2.56,0,1,1-2.56,2.56A2.563,2.563,0,0,1,13.891,1.024ZM3.584,11.3a2.56,2.56,0,1,1,2.56-2.56A2.563,2.563,0,0,1,3.584,11.3Zm10.308,5.154a2.56,2.56,0,1,1,2.56-2.56A2.563,2.563,0,0,1,13.891,16.451Z" fill="#42e1ff" stroke="#42e1ff" stroke-width="0.5"/>
    </g>
  </g>
</svg>
