<svg xmlns="http://www.w3.org/2000/svg" xmlns:xlink="http://www.w3.org/1999/xlink" width="107" height="107" viewBox="0 0 107 107">
  <defs>
    <filter id="Ellipse_1" x="0" y="0" width="107" height="107" filterUnits="userSpaceOnUse">
      <feOffset dx="9" dy="9" input="SourceAlpha"/>
      <feGaussianBlur stdDeviation="7.5" result="blur"/>
      <feFlood flood-opacity="0.239"/>
      <feComposite operator="in" in2="blur"/>
      <feComposite in="SourceGraphic"/>
    </filter>
  </defs>
  <g id="Group_139" data-name="Group 139" transform="translate(9.5 -614.5)">
    <g transform="matrix(1, 0, 0, 1, -9.5, 614.5)" filter="url(#Ellipse_1)">
      <circle id="Ellipse_1-2" data-name="Ellipse 1" cx="31" cy="31" r="31" transform="translate(13.5 13.5)" fill="#2e3339"/>
    </g>
    <path id="dress" d="M32.033,28a71.887,71.887,0,0,1-10.225-13.92V11.763A13.517,13.517,0,0,1,22.1,9.54a.525.525,0,1,0-1.032-.2c-.149.78-.243,1.406-.285,1.9H11.9A45.858,45.858,0,0,0,10.74,5.5a1.558,1.558,0,0,1,.915-.9c1.356-.5,3.657.528,4.429.968a.527.527,0,0,0,.52,0c.773-.44,3.074-1.472,4.43-.968a1.564,1.564,0,0,1,.915.9c-.078.3-.251.975-.438,1.781a.525.525,0,1,0,1.023.239c.25-1.073.472-1.909.474-1.917a.529.529,0,0,0-.013-.311,2.692,2.692,0,0,0-1.119-1.445A5.412,5.412,0,0,0,20.121.127a.525.525,0,0,0-.794.132,9.457,9.457,0,0,0-1.186,3.507c-.08.026-.16.052-.242.081a12.1,12.1,0,0,0-1.556.665,12.154,12.154,0,0,0-1.556-.665c-.081-.029-.162-.054-.242-.081A9.466,9.466,0,0,0,13.36.258a.525.525,0,0,0-.794-.132,5.408,5.408,0,0,0-1.754,3.716A2.692,2.692,0,0,0,9.694,5.288a.525.525,0,0,0-.013.311,40.428,40.428,0,0,1,1.2,6.164v2.314A71.924,71.924,0,0,1,.655,28a.526.526,0,0,0,.039.778A22.551,22.551,0,0,0,4.218,31h0a.525.525,0,0,0,.106.752,17.609,17.609,0,0,0,2.688,1.49.525.525,0,1,0,.439-.955A19.537,19.537,0,0,1,5.394,31.2a75.129,75.129,0,0,0,7.655-13.4.525.525,0,1,0-.965-.415A75.317,75.317,0,0,1,4.865,30.151a24.745,24.745,0,0,1-3.043-1.842,73.942,73.942,0,0,0,9.891-13.571h9.261a74,74,0,0,0,9.892,13.571,24.633,24.633,0,0,1-3.043,1.842A75.281,75.281,0,0,1,20.6,17.381a.525.525,0,1,0-.964.415,75.222,75.222,0,0,0,7.655,13.4,21.744,21.744,0,0,1-10.949,3.089,20.983,20.983,0,0,1-6.99-1.226A.525.525,0,0,0,9,34.05a22.048,22.048,0,0,0,7.34,1.286,22.223,22.223,0,0,0,12.02-3.583A.526.526,0,0,0,28.472,31h0a22.531,22.531,0,0,0,3.524-2.225A.524.524,0,0,0,32.033,28ZM19.911,1.417a4.489,4.489,0,0,1,.86,2.035,4.839,4.839,0,0,0-1.538.042,8.142,8.142,0,0,1,.678-2.077Zm-7.134,0a8.173,8.173,0,0,1,.678,2.077,4.841,4.841,0,0,0-1.538-.042,4.483,4.483,0,0,1,.86-2.035Zm7.98,12.271H11.931v-1.4h8.827Zm0,0" transform="translate(18.499 641)" fill="#f4f4f4"/>
  </g>
</svg>
