<svg id="whatsapp" xmlns="http://www.w3.org/2000/svg" width="22.138" height="22.138" viewBox="0 0 22.138 22.138">
  <path id="Path_147" data-name="Path 147" d="M11.072,0h-.006A11.062,11.062,0,0,0,2.107,17.557L.728,21.669l4.255-1.36A11.067,11.067,0,1,0,11.072,0Z" fill="#4caf50"/>
  <path id="Path_148" data-name="Path 148" d="M120.139,127.656a3.123,3.123,0,0,1-2.172,1.562c-.578.123-1.334.221-3.877-.833a13.867,13.867,0,0,1-5.511-4.868,6.322,6.322,0,0,1-1.314-3.339,3.534,3.534,0,0,1,1.132-2.694,1.608,1.608,0,0,1,1.132-.4c.137,0,.26.007.371.012.325.014.488.033.7.547.267.643.917,2.232.995,2.4a.659.659,0,0,1,.047.6,1.913,1.913,0,0,1-.358.508c-.163.188-.318.332-.482.534-.149.176-.318.364-.13.689a9.825,9.825,0,0,0,1.8,2.232,8.138,8.138,0,0,0,2.6,1.6.7.7,0,0,0,.78-.123,13.39,13.39,0,0,0,.865-1.146.618.618,0,0,1,.794-.241c.3.1,1.88.886,2.206,1.047s.54.241.618.378A2.757,2.757,0,0,1,120.139,127.656Z" transform="translate(-102.626 -112.025)" fill="#fafafa"/>
</svg>
