<svg xmlns="http://www.w3.org/2000/svg" width="20.662" height="20.662" viewBox="0 0 20.662 20.662">
  <g id="yarn" transform="translate(0.25 0.25)">
    <g id="Group_248" data-name="Group 248" transform="translate(14.255)">
      <g id="Group_247" data-name="Group 247">
        <path id="Path_131" data-name="Path 131" d="M367.316,0h-3.544a1.772,1.772,0,0,0,0,3.544h.591a1.183,1.183,0,0,1,1.181,1.181,1.16,1.16,0,0,1-.5.941,10.03,10.03,0,0,1,.6,1.041,2.359,2.359,0,0,0-1.278-4.344h-.591a.591.591,0,1,1,0-1.181h3.544a.591.591,0,1,0,0-1.181Z" transform="translate(-362)" stroke="#000" stroke-width="0.5"/>
      </g>
    </g>
    <g id="Group_250" data-name="Group 250" transform="translate(6.797 10.75)">
      <g id="Group_249" data-name="Group 249">
        <path id="Path_132" data-name="Path 132" d="M173.5,272.986a8.853,8.853,0,0,0-.889,1.516,7.678,7.678,0,0,1,4.284,3.787,7.779,7.779,0,0,1,.8,3.542,8.941,8.941,0,0,0,.832-.335,6.726,6.726,0,0,0,.359-2.13A6.482,6.482,0,0,0,173.5,272.986Z" transform="translate(-172.61 -272.986)" stroke="#000" stroke-width="0.5"/>
      </g>
    </g>
    <g id="Group_252" data-name="Group 252" transform="translate(8.556 8.41)">
      <g id="Group_251" data-name="Group 251">
        <path id="Path_133" data-name="Path 133" d="M218.925,213.569a8.913,8.913,0,0,0-1.657,1.307,7.677,7.677,0,0,1,5.7,7.413,8.2,8.2,0,0,1-.108,1.273c.135-.1.261-.248.391-.354a6.47,6.47,0,0,0-4.324-9.638Z" transform="translate(-217.268 -213.569)" stroke="#000" stroke-width="0.5"/>
      </g>
    </g>
    <g id="Group_254" data-name="Group 254" transform="translate(3.623 4.725)">
      <g id="Group_253" data-name="Group 253">
        <path id="Path_134" data-name="Path 134" d="M103.836,120.519A8.851,8.851,0,0,0,92,128.86a8.959,8.959,0,0,0,1.549,5.023,10.336,10.336,0,0,1-.368-2.66,10.008,10.008,0,0,1,11.265-9.962A8.932,8.932,0,0,0,103.836,120.519Z" transform="translate(-92 -120)" stroke="#000" stroke-width="0.5"/>
      </g>
    </g>
    <g id="Group_256" data-name="Group 256" transform="translate(5.985 13.368)">
      <g id="Group_255" data-name="Group 255">
        <path id="Path_135" data-name="Path 135" d="M156.039,342.685a6.5,6.5,0,0,0-3.653-3.215,8.828,8.828,0,0,0-.386,2.58,8.988,8.988,0,0,0,.893,3.923,8.842,8.842,0,0,0,2.06.291,8.706,8.706,0,0,0,1.753-.2A6.759,6.759,0,0,0,156.039,342.685Z" transform="translate(-152 -339.47)" stroke="#000" stroke-width="0.5"/>
      </g>
    </g>
    <g id="Group_258" data-name="Group 258" transform="translate(11.778 7.088)">
      <g id="Group_257" data-name="Group 257">
        <path id="Path_136" data-name="Path 136" d="M304.212,180.241a8.721,8.721,0,0,0-5.107.318,7.449,7.449,0,0,1,4.753,8.117,8.706,8.706,0,0,0,.7-1.406,8.818,8.818,0,0,0-.343-7.029Z" transform="translate(-299.105 -180)" stroke="#000" stroke-width="0.5"/>
      </g>
    </g>
    <g id="Group_260" data-name="Group 260" transform="translate(0 2.363)">
      <g id="Group_259" data-name="Group 259">
        <path id="Path_137" data-name="Path 137" d="M8.939,60A8.837,8.837,0,0,0,3.633,75.978a10.171,10.171,0,0,1-1.191-4.755A10.053,10.053,0,0,1,12.483,61.181c.317,0,.629.022.941.051A8.793,8.793,0,0,0,8.939,60Z" transform="translate(0 -60)" stroke="#000" stroke-width="0.5"/>
      </g>
    </g>
  </g>
</svg>
