<?xml version="1.0"?>
<svg xmlns="http://www.w3.org/2000/svg" viewBox="0 0 64 64">
    <path d="M 26 2 C 23.798 2 20.650406 2.6878594 18.691406 4.0058594 C 14.969406 4.1418594 12.418906 6.7573906 12.003906 10.900391 C 11.747906 13.459391 11.982719 15.292906 12.136719 16.503906 C 12.190719 16.924906 12.249516 17.400969 12.228516 17.542969 C 12.196516 17.729969 12.167578 17.916469 12.142578 18.105469 C 11.977578 18.111469 11.830078 18.137875 11.705078 18.171875 C 10.804078 18.413875 10.170875 19.215594 9.921875 20.433594 C 9.722875 21.410594 9.7845625 22.598344 10.101562 23.777344 C 10.636563 25.775344 11.758375 27.274375 12.984375 27.734375 C 13.618375 29.672375 14.545125 31.599031 15.703125 33.332031 L 6.4863281 38.669922 C 2.4853281 40.984922 -1.1842379e-15 45.294969 0 49.917969 L 0 53 L 0 55 L 0 57 C 0 58.654 1.346 60 3 60 L 28.763672 60 L 28.412109 62.457031 C 28.368109 62.769031 28.473312 63.083641 28.695312 63.306641 C 28.883312 63.495641 29.138344 63.599609 29.402344 63.599609 C 29.449344 63.599609 29.496922 63.596844 29.544922 63.589844 L 34.464844 62.886719 L 40.851562 62.208984 C 41.080562 62.184984 41.290125 62.082922 41.453125 61.919922 L 59.294922 44.019531 L 62.121094 41.193359 C 63.065094 40.249359 63.587891 38.993203 63.587891 37.658203 C 63.586891 36.321203 63.065094 35.065094 62.121094 34.121094 L 57.878906 29.878906 C 55.928906 27.928906 52.756594 27.930906 50.808594 29.878906 L 48.736328 31.949219 L 48.736328 31.951172 L 48.580078 32.105469 L 47.980469 32.707031 C 47.978469 32.709031 47.978563 32.710891 47.976562 32.712891 L 44.943359 35.755859 C 44.933359 35.765859 44.918203 35.769297 44.908203 35.779297 C 44.898203 35.789297 44.896719 35.803453 44.886719 35.814453 L 43.310547 37.394531 L 36.294922 33.332031 C 37.452922 31.599031 38.381625 29.671375 39.015625 27.734375 C 40.240625 27.274375 41.362437 25.775344 41.898438 23.777344 C 42.635438 21.024344 41.946922 18.614875 40.294922 18.171875 C 40.171922 18.138875 40.024328 18.113422 39.861328 18.107422 C 39.720328 17.037422 39.447359 16.039922 38.943359 14.669922 C 38.928359 14.629922 38.91725 14.593547 38.90625 14.560547 C 39.25825 14.589547 39.824109 14.734781 40.287109 14.925781 C 40.632109 15.068781 41.025547 15.006578 41.310547 14.767578 C 41.595547 14.528578 41.726484 14.150109 41.646484 13.787109 C 40.033484 6.4051094 34.558 2 27 2 L 26 2 z M 26 4 L 27 4 C 33.069 4 37.453953 7.1030312 39.251953 12.582031 C 38.561953 12.505031 37.846469 12.587547 37.355469 13.060547 C 36.972469 13.427547 36.611406 14.124375 37.066406 15.359375 C 37.684406 17.037375 37.905703 18.027594 37.970703 19.433594 C 37.987703 19.791594 38.193719 20.111391 38.511719 20.275391 C 38.831719 20.438391 39.214672 20.419609 39.513672 20.224609 C 39.677672 20.118609 39.764203 20.105516 39.783203 20.103516 C 40.025203 20.186516 40.462797 21.404813 39.966797 23.257812 C 39.472797 25.100812 38.529328 25.880859 38.236328 25.880859 L 38.234375 25.880859 C 37.792375 25.880859 37.402391 26.171703 37.275391 26.595703 C 35.590391 32.262703 31.177 38 26 38 C 20.822 38 16.408563 32.262703 14.726562 26.595703 C 14.600563 26.171703 14.209578 25.880859 13.767578 25.880859 L 13.765625 25.880859 C 13.472625 25.880859 12.528156 25.100813 12.035156 23.257812 C 11.802156 22.385813 11.745812 21.502984 11.882812 20.833984 C 11.996813 20.273984 12.191844 20.110516 12.214844 20.103516 C 12.216844 20.103516 12.305281 20.104609 12.488281 20.224609 C 12.787281 20.419609 13.168281 20.438391 13.488281 20.275391 C 13.806281 20.111391 14.01425 19.791594 14.03125 19.433594 C 14.05525 18.912594 14.111219 18.391672 14.199219 17.888672 C 14.274219 17.461672 14.214094 16.980953 14.121094 16.251953 C 13.977094 15.129953 13.763094 13.433563 13.996094 11.101562 C 14.315094 7.9085625 16.185578 6.0019531 19.017578 6.0019531 C 19.233578 6.0019531 19.444188 5.9307812 19.617188 5.8007812 C 20.986187 4.7737813 23.731 4 26 4 z M 20.527344 10.125 C 19.813344 10.063453 19.094141 10.389375 18.681641 11.015625 L 17.078125 13.449219 C 16.774125 13.910219 16.901281 14.531937 17.363281 14.835938 C 17.532281 14.947938 17.724109 15 17.912109 15 C 18.237109 15 18.556047 14.842781 18.748047 14.550781 L 20.353516 12.117188 L 21.916016 12.878906 C 24.764016 14.266906 27.943328 15 31.111328 15 L 33.666016 15 C 34.219016 15 34.666016 14.552 34.666016 14 C 34.666016 13.448 34.219016 13 33.666016 13 L 31.111328 13 C 28.245328 13 25.369016 12.335078 22.791016 11.080078 L 21.228516 10.318359 C 21.003016 10.208359 20.765344 10.145516 20.527344 10.125 z M 54.341797 30.416016 C 55.110047 30.415891 55.879344 30.708469 56.464844 31.292969 L 60.707031 35.535156 C 61.273031 36.102156 61.585938 36.856203 61.585938 37.658203 C 61.585938 38.458203 61.273031 39.210344 60.707031 39.777344 L 58.585938 41.898438 L 50.101562 33.414062 L 52.222656 31.292969 C 52.807156 30.708969 53.573547 30.416141 54.341797 30.416016 z M 48.689453 34.830078 L 57.173828 43.314453 L 55.519531 44.974609 L 47.033203 36.490234 L 48.689453 34.830078 z M 16.908203 34.943359 C 19.340203 37.911359 22.503 40 26 40 C 29.496 40 32.657844 37.910359 35.089844 34.943359 L 41.849609 38.857422 L 30.138672 50.607422 C 29.979672 50.766422 29.878516 50.973266 29.853516 51.197266 L 29.119141 57.507812 L 29.048828 58 L 3 58 C 2.448 58 2 57.551 2 57 L 2 55 L 2 53 L 2 49.917969 C 2 46.005969 4.1032812 42.358437 7.4882812 40.398438 L 16.908203 34.943359 z M 45.621094 37.90625 L 54.107422 46.390625 L 41.455078 59.082031 L 41.003906 54.716797 C 40.949906 54.206797 40.522766 53.820313 40.009766 53.820312 L 38.181641 53.820312 L 38.181641 52.404297 L 43.544922 47.041016 C 43.935922 46.650016 43.935922 46.017953 43.544922 45.626953 C 43.153922 45.235953 42.521859 45.235953 42.130859 45.626953 L 36.810547 50.945312 L 33.019531 50.546875 L 45.621094 37.90625 z M 18.064453 40.001953 C 17.675438 39.977016 17.290719 40.182234 17.105469 40.552734 C 16.858469 41.046734 17.058734 41.647531 17.552734 41.894531 L 25.552734 45.894531 C 25.693734 45.964531 25.847 46 26 46 C 26.153 46 26.307266 45.964531 26.447266 45.894531 L 34.447266 41.894531 C 34.941266 41.647531 35.141531 41.046734 34.894531 40.552734 C 34.646531 40.058734 34.046734 39.858469 33.552734 40.105469 L 26 43.882812 L 18.447266 40.105469 C 18.323766 40.043469 18.194125 40.010266 18.064453 40.001953 z M 6 52 C 5.447 52 5 52.448 5 53 L 5 55 C 5 55.552 5.447 56 6 56 C 6.553 56 7 55.552 7 55 L 7 53 C 7 52.448 6.553 52 6 52 z M 11 52 C 10.447 52 10 52.448 10 53 L 10 55 C 10 55.552 10.447 56 11 56 C 11.553 56 12 55.552 12 55 L 12 53 C 12 52.448 11.553 52 11 52 z M 16 52 C 15.447 52 15 52.448 15 53 L 15 55 C 15 55.552 15.447 56 16 56 C 16.553 56 17 55.552 17 55 L 17 53 C 17 52.448 16.553 52 16 52 z M 21 52 C 20.447 52 20 52.448 20 53 L 20 55 C 20 55.552 20.447 56 21 56 C 21.553 56 22 55.552 22 55 L 22 53 C 22 52.448 21.553 52 21 52 z M 26 52 C 25.447 52 25 52.448 25 53 L 25 55 C 25 55.552 25.447 56 26 56 C 26.553 56 27 55.552 27 55 L 27 53 C 27 52.448 26.553 52 26 52 z M 31.724609 52.421875 L 36.181641 52.890625 L 36.181641 54.818359 C 36.181641 55.370359 36.628641 55.818359 37.181641 55.818359 L 39.107422 55.818359 L 39.574219 60.330078 L 34.720703 60.845703 L 31.158203 57.283203 L 31.724609 52.421875 z"/>
</svg>
